<?xml version="1.0" encoding="UTF-8"?>
<svg width="670.35mm" height="746.97mm" version="1.1" viewBox="0 0 2375.2729 2646.7409" xmlns="http://www.w3.org/2000/svg" xmlns:xlink="http://www.w3.org/1999/xlink">
 <defs>
  <linearGradient id="a">
   <stop stop-color="#f3ffc0" offset="0"/>
   <stop stop-color="#ddff5f" offset=".8869"/>
   <stop stop-color="#d3ff25" offset="1"/>
  </linearGradient>
  <radialGradient id="d" cx="442.65" cy="585.67" r="118.79" gradientTransform="matrix(2.9462 0 0 2.9462 -2326 -1022.7)" gradientUnits="userSpaceOnUse" xlink:href="#a"/>
  <radialGradient id="e" cx="442.65" cy="585.67" r="118.79" gradientTransform="matrix(2.9462 0 0 2.9462 -2326 -1102.7)" gradientUnits="userSpaceOnUse" xlink:href="#a"/>
 </defs>
 <g transform="translate(2273.6 704.59)">
  <g transform="matrix(3.3933 0 0 3.3933 2381.8 -1630.3)">
   <circle cx="-1132.8" cy="755.93" r="126.69" fill="none"/>
   <path d="m-1021.9 702.79-174.84 302.82a349.99 349.99 0 0 0 174.84 47.162 349.99 349.99 0 0 0 174.77 -47.266l-174.77-302.72z" fill="url(#d)"/>
   <path d="m-1004 733.84a50.085 50.085 0 0 0 -34.566 47.582 50.085 50.085 0 0 0 50.085 50.085v-70.789l-15.519-26.878zm-82.459 80.721-24.789 42.944 54.614 26.792a50.085 50.085 0 0 0 -22.908 -67.026 50.085 50.085 0 0 0 -6.9167 -2.7103zm170.24 71.324-5.7082 23.265a50.085 50.085 0 0 0 19.628 0.84013l-13.92-24.105zm-67.906 14.616a50.085 50.085 0 0 0 -9.9376 1.099 50.085 50.085 0 0 0 -14.012 5.2767 50.085 50.085 0 0 0 -3.6079 2.2614 50.085 50.085 0 0 0 -2.0485 1.4961 50.085 50.085 0 0 0 -1.968 1.5306 50.085 50.085 0 0 0 -1.8644 1.6688 50.085 50.085 0 0 0 -1.7896 1.7032 50.085 50.085 0 0 0 -1.6975 1.8586 50.085 50.085 0 0 0 -1.6514 1.9162 50.085 50.085 0 0 0 -1.4731 1.9795 50.085 50.085 0 0 0 -1.4386 2.06 50.085 50.085 0 0 0 -1.335 2.2326 50.085 50.085 0 0 0 -1.1451 2.0312 50.085 50.085 0 0 0 -1.1394 2.4226 50.085 50.085 0 0 0 -0.9552 2.1981 50.085 50.085 0 0 0 -0.8401 2.365 50.085 50.085 0 0 0 -0.7596 2.3765 50.085 50.085 0 0 0 -0.5869 2.4053 50.085 50.085 0 0 0 -0.5352 2.4916 50.085 50.085 0 0 0 -0.3452 2.4398 50.085 50.085 0 0 0 -0.2761 2.5146 50.085 50.085 0 0 0 -0.098 2.411 50.085 50.085 0 0 0 -0.029 2.6297 50.085 50.085 0 0 0 0.1497 2.4398 50.085 50.085 0 0 0 0.2186 2.4743 50.085 50.085 0 0 0 0.4086 2.5204 50.085 50.085 0 0 0 0.4718 2.4513 50.085 50.085 0 0 0 0.633 2.3823 50.085 50.085 0 0 0 0.7135 2.4053 50.085 50.085 0 0 0 0.9265 2.4513 50.085 50.085 0 0 0 0.8861 2.1636 50.085 50.085 0 0 0 1.9219 3.8841l87.419-48.911a50.085 50.085 0 0 0 -2.2614 -3.6079 50.085 50.085 0 0 0 -1.4961 -2.0485 50.085 50.085 0 0 0 -1.5306 -1.968 50.085 50.085 0 0 0 -1.6688 -1.8644 50.085 50.085 0 0 0 -1.7032 -1.7896 50.085 50.085 0 0 0 -1.8932 -1.732 50.085 50.085 0 0 0 -1.8471 -1.5882 50.085 50.085 0 0 0 -2.1233 -1.5824 50.085 50.085 0 0 0 -1.8932 -1.3235 50.085 50.085 0 0 0 -2.3823 -1.4271 50.085 50.085 0 0 0 -1.9334 -1.0818 50.085 50.085 0 0 0 -2.4283 -1.1451 50.085 50.085 0 0 0 -2.1981 -0.95521 50.085 50.085 0 0 0 -2.365 -0.84014 50.085 50.085 0 0 0 -2.3765 -0.75956 50.085 50.085 0 0 0 -2.4053 -0.58694 50.085 50.085 0 0 0 -2.4916 -0.53514 50.085 50.085 0 0 0 -2.4398 -0.34527 50.085 50.085 0 0 0 -2.5146 -0.27606 50.085 50.085 0 0 0 -4.2639 -0.17264z" fill="#f00"/>
   <path d="m-958.19 813.18c-6.2861 4.9998-10.358 12.687-10.358 21.268 0 14.926 12.28 27.206 27.206 27.206 3.5314 0 6.9048-0.70923 10.012-1.9564l-8.6257-14.932c-0.45775 0.0586-0.91026 0.13228-1.3868 0.13228-5.8693 0-10.45-4.5805-10.45-10.45 3e-5 -2.4481 0.83174-4.6449 2.1866-6.4045l-8.5854-14.863zm-127.51 100.13c-14.926 0-27.206 12.274-27.206 27.2s12.28 27.206 27.206 27.206 27.206-12.28 27.206-27.206-12.28-27.2-27.206-27.2zm0 16.756c5.8692 0 10.45 4.5748 10.45 10.444 0 5.8693-4.5806 10.45-10.45 10.45-5.8693 0-10.45-4.5805-10.45-10.45 0-5.8692 4.5805-10.444 10.45-10.444z" color="#000000" color-rendering="auto" image-rendering="auto" shape-rendering="auto" solid-color="#000000" style="block-progression:tb;isolation:auto;mix-blend-mode:normal;text-decoration-color:#000000;text-decoration-line:none;text-decoration-style:solid;text-indent:0;text-transform:none;white-space:normal"/>
   <path d="m-1021.9 272.79a349.99 349.99 0 0 0 -349.99 349.99 349.99 349.99 0 0 0 175.15 302.82l174.84-302.82 174.77 302.72a349.99 349.99 0 0 0 175.22 -302.72 349.99 349.99 0 0 0 -349.99 -349.99zm174.77 652.71a349.99 349.99 0 0 1 -37.955 19.006 349.99 349.99 0 0 0 37.955 -19.006zm-349.61 0.1037a349.99 349.99 0 0 0 29.203 15.024 349.99 349.99 0 0 1 -29.203 -15.024zm31.781 16.267a349.99 349.99 0 0 0 27.724 10.922 349.99 349.99 0 0 1 -27.724 -10.922zm278.99 3.0325a349.99 349.99 0 0 1 -29.508 10.858 349.99 349.99 0 0 0 29.508 -10.858zm-245.67 9.9319a349.99 349.99 0 0 0 25.606 7.2274 349.99 349.99 0 0 1 -25.606 -7.2274zm211.67 2.4168a349.99 349.99 0 0 1 -26.769 6.9051 349.99 349.99 0 0 0 26.769 -6.9051zm-177.16 7.0835a349.99 349.99 0 0 0 23.115 4.0913 349.99 349.99 0 0 1 -23.115 -4.0913zm142.06 1.6917a349.99 349.99 0 0 1 -23.403 3.5964 349.99 349.99 0 0 0 23.403 -3.5964zm-106.83 4.2294a349.99 349.99 0 0 0 20.1 1.5134 349.99 349.99 0 0 1 -20.1 -1.5134zm70.944 0.88041a349.99 349.99 0 0 1 -30.946 1.6284 349.99 349.99 0 0 0 30.946 -1.6284z" fill="url(#e)"/>
   <path d="m-1087.2 349.11a50.085 50.085 0 0 0 -23.949 6.3757 50.085 50.085 0 0 0 -19.254 68.165l87.419-48.911a50.085 50.085 0 0 0 -44.216 -25.63zm169.47 16.446v100.17a50.085 50.085 0 0 0 50.085 -50.085 50.085 50.085 0 0 0 -50.085 -50.085zm-80.451 27.494-23.874 97.288a50.085 50.085 0 0 0 60.581 -36.707 50.085 50.085 0 0 0 -36.707 -60.581zm-187.65 72.677a50.085 50.085 0 0 0 -50.085 50.085 50.085 50.085 0 0 0 50.085 50.085v-100.17zm421.31 35.354a50.085 50.085 0 0 0 -50.085 50.085 50.085 50.085 0 0 0 50.085 50.085v-100.17zm-137.42 18.955a50.085 50.085 0 0 0 -44.233 28.018l89.934 44.118a50.085 50.085 0 0 0 -22.908 -67.026 50.085 50.085 0 0 0 -22.793 -5.1098zm-132.58 8.8386a50.085 50.085 0 0 0 -44.233 28.018l89.934 44.118a50.085 50.085 0 0 0 -22.908 -67.026 50.085 50.085 0 0 0 -22.793 -5.1098zm-96.229 55.678-23.874 97.288a50.085 50.085 0 0 0 60.581 -36.707 50.085 50.085 0 0 0 -36.706 -60.581zm264.52 38.554a50.085 50.085 0 0 0 -23.949 6.3757 50.085 50.085 0 0 0 -19.254 68.165l87.419-48.911a50.085 50.085 0 0 0 -44.216 -25.63zm-412.83 20.669a50.085 50.085 0 0 0 -44.233 28.018l89.934 44.118a50.085 50.085 0 0 0 -22.908 -67.026 50.085 50.085 0 0 0 -22.793 -5.1098zm290.63 7.5611a50.085 50.085 0 0 0 -15.519 2.5031l15.519 26.878v-29.381zm162.04 44.193v100.17a50.085 50.085 0 0 0 50.085 -50.085 50.085 50.085 0 0 0 -50.085 -50.085zm-71.612 36.333-18.166 74.023 13.92 24.105a50.085 50.085 0 0 0 40.953 -37.547 50.085 50.085 0 0 0 -36.707 -60.581zm-204.28 0.29921a50.085 50.085 0 0 0 -44.233 28.018l35.32 17.326 24.79-42.944a50.085 50.085 0 0 0 -15.876 -2.3996zm-98.272 31.131v100.17a50.085 50.085 0 0 0 50.085 -50.085 50.085 50.085 0 0 0 -50.085 -50.085z" fill="#f00"/>
   <path d="m-1209.4 385.49c-14.926 0-27.206 12.274-27.206 27.2s12.28 27.206 27.206 27.206 27.206-12.28 27.206-27.206c-1e-4 -14.926-12.28-27.2-27.206-27.2zm0 16.756c5.8693 0 10.45 4.5748 10.45 10.444s-4.5805 10.45-10.45 10.45c-5.8692 0-10.45-4.5805-10.45-10.45 1e-4 -5.8693 4.5806-10.444 10.45-10.444zm388.9 33.329c-14.926 0-27.206 12.274-27.206 27.2s12.28 27.206 27.206 27.206 27.206-12.28 27.206-27.206c-3e-5 -14.926-12.28-27.2-27.206-27.2zm-271.05 5.8924c-14.926 0-27.206 12.274-27.206 27.2s12.28 27.206 27.206 27.206 27.206-12.28 27.206-27.206c-1e-4 -14.926-12.28-27.2-27.206-27.2zm271.05 10.864c5.8692 0 10.45 4.5748 10.45 10.444 0 5.8693-4.5805 10.45-10.45 10.45-5.8693 0-10.45-4.5805-10.45-10.45 3e-5 -5.8692 4.5805-10.444 10.45-10.444zm-271.05 5.8924c5.8693 0 10.45 4.5748 10.45 10.444 0 5.8693-4.5805 10.45-10.45 10.45-5.8692 0-10.45-4.5805-10.45-10.45 1e-4 -5.8692 4.5806-10.444 10.45-10.444zm-182.66 71.629c-14.926 0-27.206 12.274-27.206 27.2s12.28 27.206 27.206 27.206 27.206-12.28 27.206-27.206c-1e-4 -14.926-12.28-27.2-27.206-27.2zm0 16.756c5.8693 0 10.45 4.5748 10.45 10.444s-4.5805 10.45-10.45 10.45c-5.8692 0-10.45-4.5805-10.45-10.45 1e-4 -5.8693 4.5806-10.444 10.45-10.444zm332.92 45.114c-14.926 0-27.206 12.274-27.206 27.2s12.28 27.206 27.206 27.206 27.206-12.28 27.206-27.206c-3e-5 -14.926-12.28-27.2-27.206-27.2zm0 16.756c5.8692 0 10.45 4.5748 10.45 10.444s-4.5805 10.45-10.45 10.45-10.45-4.5805-10.45-10.45c3e-5 -5.8693 4.5805-10.444 10.45-10.444zm185.61 36.275c-14.926 0-27.206 12.274-27.206 27.2s12.28 27.206 27.206 27.206 27.206-12.28 27.206-27.206c-3e-5 -14.926-12.28-27.2-27.206-27.2zm0 16.756c5.8693 0 10.45 4.5748 10.45 10.444 0 5.8693-4.5805 10.45-10.45 10.45-5.8692 0-10.45-4.5805-10.45-10.45 3e-5 -5.8692 4.5805-10.444 10.45-10.444zm-418.36 18.598c-14.926 0-27.206 12.274-27.206 27.2s12.28 27.206 27.206 27.206 27.206-12.28 27.206-27.206-12.28-27.2-27.206-27.2zm0 16.756c5.8693 0 10.45 4.5748 10.45 10.444s-4.5805 10.45-10.45 10.45-10.45-4.5805-10.45-10.45c0-5.8693 4.5805-10.444 10.45-10.444zm232.75 30.383c-6.3456 0-12.2 2.2351-16.849 5.9326l8.5854 14.863c1.8935-2.4591 4.842-4.0395 8.2632-4.0395 5.8692 0 10.45 4.5748 10.45 10.444 0 5.3927-3.8825 9.654-9.063 10.317l8.6257 14.932c10.027-4.0243 17.194-13.855 17.194-25.25-3e-5 -14.926-12.28-27.2-27.206-27.2zm-318.19 14.731c-14.926 0-27.206 12.274-27.206 27.2s12.28 27.206 27.206 27.206 27.206-12.28 27.206-27.206-12.28-27.2-27.206-27.2zm0 16.756c5.8692 0 10.45 4.5748 10.45 10.444s-4.5806 10.45-10.45 10.45c-5.8693 0-10.45-4.5805-10.45-10.45 0-5.8693 4.5805-10.444 10.45-10.444z" color="#000000" color-rendering="auto" image-rendering="auto" shape-rendering="auto" solid-color="#000000" style="block-progression:tb;isolation:auto;mix-blend-mode:normal;text-decoration-color:#000000;text-decoration-line:none;text-decoration-style:solid;text-indent:0;text-transform:none;white-space:normal"/>
  </g>
 </g>
</svg>
